<svg width="40" height="40" viewBox="0 0 40 40" fill="none" xmlns="http://www.w3.org/2000/svg">
<path d="M7.49999 20C9.80118 20 11.6667 18.1345 11.6667 15.8333C11.6667 13.5321 9.80118 11.6667 7.49999 11.6667C5.19881 11.6667 3.33333 13.5321 3.33333 15.8333C3.33333 18.1345 5.19881 20 7.49999 20Z" fill="#0C00C8"></path>
<path d="M15 13.3333C17.3012 13.3333 19.1667 11.4679 19.1667 9.16667C19.1667 6.86548 17.3012 5 15 5C12.6988 5 10.8333 6.86548 10.8333 9.16667C10.8333 11.4679 12.6988 13.3333 15 13.3333Z" fill="#0C00C8"></path>
<path d="M25 13.3333C27.3012 13.3333 29.1667 11.4679 29.1667 9.16667C29.1667 6.86548 27.3012 5 25 5C22.6988 5 20.8333 6.86548 20.8333 9.16667C20.8333 11.4679 22.6988 13.3333 25 13.3333Z" fill="#0C00C8"></path>
<path d="M32.5 20C34.8012 20 36.6667 18.1345 36.6667 15.8333C36.6667 13.5321 34.8012 11.6667 32.5 11.6667C30.1988 11.6667 28.3333 13.5321 28.3333 15.8333C28.3333 18.1345 30.1988 20 32.5 20Z" fill="#0C00C8"></path>
<path d="M28.9 24.7667C27.45 23.0667 26.2333 21.6167 24.7667 19.9167C24 19.0167 23.0167 18.1167 21.85 17.7167C21.6667 17.65 21.4833 17.6 21.3 17.5667C20.8833 17.5 20.4333 17.5 20 17.5C19.5667 17.5 19.1167 17.5 18.6833 17.5833C18.5 17.6167 18.3167 17.6667 18.1333 17.7333C16.9667 18.1333 16 19.0333 15.2167 19.9333C13.7667 21.6333 12.55 23.0833 11.0833 24.7833C8.90001 26.9667 6.21667 29.3833 6.71667 32.7667C7.20001 34.4667 8.41667 36.15 10.6 36.6333C11.8167 36.8833 15.7 35.9 19.8333 35.9H20.1333C24.2667 35.9 28.15 36.8667 29.3667 36.6333C31.55 36.15 32.7667 34.45 33.25 32.7667C33.7667 29.3667 31.0833 26.95 28.9 24.7667V24.7667Z" fill="#0C00C8"></path>
</svg>
