<svg preserveAspectRatio="none" width="360" height="139" viewBox="0 0 360 139" fill="none" xmlns="http://www.w3.org/2000/svg">
<g opacity="0.5" clip-path="url(#clip0_38_795)">
<path d="M54.5585 84.9644C51.8495 84.967 49.1597 84.4372 46.6033 83.3972L46.413 83.3197L46.5698 82.4691C41.943 71.9543 43.5407 57.5025 50.6508 45.6194C57.1189 34.809 66.9698 26.9391 75.6599 19.997C76.7296 19.1423 77.9948 18.6773 79.2935 18.6616C80.5923 18.6459 81.8655 19.0802 82.9503 19.9089C84.0352 20.7375 84.8822 21.9229 85.3832 23.3133C85.8841 24.7037 86.0161 26.2359 85.7623 27.7139L82.69 45.6057C80.4534 58.6345 77.7941 70.9638 69.9231 78.629C65.5843 82.733 60.1564 84.9711 54.5585 84.9644V84.9644Z" fill="#6C63FF"/>
<path d="M48.6526 128.657C47.0442 115.061 45.3893 101.288 46.5202 87.5456C47.5225 75.3407 50.7318 63.422 57.2653 53.6453C60.7333 48.4667 64.9533 44.0297 69.7354 40.5337C70.9821 39.6208 72.1298 41.913 70.8884 42.8223C62.6138 48.8897 56.2136 57.8493 52.6106 68.4093C48.6313 80.1521 47.9924 92.9535 48.6778 105.428C49.0921 112.972 49.9725 120.466 50.8566 127.951C50.9265 128.29 50.8829 128.646 50.7347 128.949C50.5866 129.252 50.3448 129.478 50.0585 129.582C49.7664 129.673 49.455 129.627 49.192 129.454C48.9289 129.28 48.7354 128.993 48.6534 128.656L48.6526 128.657Z" fill="#3F3D56"/>
<path d="M74.9547 116.309C71.999 116.301 69.0909 115.445 66.4887 113.818C63.8865 112.192 61.6708 109.845 60.0384 106.986L59.9269 106.79L60.3732 106.35C61.7156 97.7874 68.2177 90.141 76.9636 86.8517C84.9113 83.8627 93.7154 84.3512 101.481 84.7841C102.448 84.8377 103.379 85.2248 104.155 85.896C104.931 86.5672 105.518 87.4919 105.838 88.5517C106.159 89.6115 106.2 90.7583 105.956 91.8453C105.712 92.9323 105.194 93.9101 104.468 94.6535L95.7916 103.542C89.4658 110.025 83.16 115.879 75.5824 116.296C75.373 116.305 75.1632 116.309 74.9547 116.309Z" fill="#6C63FF"/>
<path d="M44.106 136.473C51.8497 120.576 60.831 102.907 76.8805 97.2596C81.3427 95.6948 86.0215 95.1343 90.6651 95.6081C92.1288 95.7548 91.7633 98.3721 90.3026 98.2263C82.5186 97.4765 74.7497 99.8613 68.3036 104.979C62.1006 109.878 57.2707 116.689 53.1833 123.911C50.6792 128.336 48.4363 132.948 46.1935 137.553C45.4769 139.025 43.381 137.962 44.106 136.473Z" fill="#3F3D56"/>
<path d="M123.742 115.408C122.558 115.409 121.382 115.177 120.265 114.723L120.075 114.645L120.157 114.201C118.164 109.617 118.864 103.345 121.949 98.1891C124.754 93.5004 129.016 90.0957 132.776 87.0923C133.259 86.7063 133.83 86.4963 134.416 86.4892C135.003 86.4821 135.578 86.6782 136.068 87.0524C136.558 87.4266 136.94 87.9619 137.166 88.5898C137.392 89.2177 137.452 89.9095 137.337 90.5769L136.011 98.2992C135.041 103.95 133.886 109.299 130.457 112.638C128.561 114.432 126.189 115.411 123.742 115.408Z" fill="#6C63FF"/>
<path d="M121.193 134.115C120.499 128.246 119.785 122.302 120.273 116.371C120.705 111.103 122.09 105.959 124.91 101.739C126.407 99.5043 128.228 97.5893 130.292 96.0805C130.831 95.6865 131.326 96.6758 130.79 97.0683C127.219 99.6869 124.456 103.554 122.901 108.112C121.184 113.18 120.908 118.705 121.204 124.089C121.383 127.345 121.763 130.579 122.144 133.81C122.174 133.956 122.156 134.11 122.092 134.241C122.028 134.371 121.923 134.469 121.8 134.514C121.674 134.553 121.539 134.533 121.426 134.458C121.312 134.383 121.229 134.26 121.193 134.114L121.193 134.115Z" fill="#3F3D56"/>
<path d="M132.546 128.936C131.248 128.933 129.972 128.557 128.829 127.843C127.687 127.129 126.715 126.099 125.998 124.844L125.887 124.648L126.132 124.406C126.739 120.678 129.571 117.357 133.372 115.927C136.825 114.629 140.636 114.84 144 115.028C144.443 115.052 144.87 115.23 145.226 115.538C145.582 115.845 145.85 116.269 145.997 116.755C146.144 117.241 146.163 117.766 146.051 118.265C145.939 118.763 145.702 119.211 145.369 119.552L141.625 123.388C138.876 126.205 136.135 128.748 132.822 128.93C132.73 128.934 132.638 128.936 132.546 128.936Z" fill="#6C63FF"/>
<path d="M119.231 137.488C122.573 130.627 126.449 123.001 133.376 120.563C135.302 119.888 137.321 119.646 139.326 119.851C139.957 119.914 139.8 121.044 139.169 120.981C135.81 120.657 132.457 121.686 129.674 123.895C126.997 126.01 124.913 128.949 123.148 132.066C122.068 133.976 121.1 135.966 120.132 137.954C119.822 138.589 118.918 138.131 119.231 137.488Z" fill="#3F3D56"/>
<path d="M316.98 114.893C313.014 114.893 309.991 112.408 307.801 107.382C305.702 102.563 307.879 98.4021 310.791 96.5756C313.708 94.7449 317.909 94.9096 320.239 99.5941C322.509 104.159 322.769 108.89 321.013 113.659L321.1 114.127L320.894 114.195C319.624 114.639 318.306 114.873 316.98 114.893V114.893Z" fill="#6C63FF"/>
<path d="M320.896 138.372C322.924 125.062 323.052 108.204 311.796 100.337C311.259 99.9433 310.763 100.933 311.299 101.325C322.166 108.951 321.844 125.237 319.944 138.067C319.915 138.211 319.935 138.363 320 138.491C320.065 138.619 320.17 138.712 320.294 138.751C320.417 138.791 320.549 138.773 320.661 138.702C320.773 138.631 320.857 138.512 320.896 138.371L320.896 138.372Z" fill="#3F3D56"/>
<path d="M269.156 127.888C267.739 127.843 266.348 127.437 265.082 126.697C261.891 124.96 261.544 121.31 262.572 118.654C263.589 116.028 266.144 113.929 269.351 115.527C270.787 116.19 272.062 117.247 273.07 118.607C274.077 119.967 274.786 121.589 275.136 123.336L275.397 123.592L275.268 123.793C273.512 126.528 271.492 127.888 269.156 127.888Z" fill="#6C63FF"/>
<path d="M284.336 137.488C280.342 128.617 273.964 118.584 264.241 119.851C263.609 119.914 263.767 121.044 264.398 120.981C273.633 119.872 279.642 129.509 283.435 137.954C283.744 138.589 284.649 138.131 284.336 137.488Z" fill="#3F3D56"/>
<path d="M359.541 139H0.458599C0.336971 139 0.220324 138.944 0.13432 138.844C0.0483162 138.744 0 138.609 0 138.468C0 138.327 0.0483162 138.191 0.13432 138.092C0.220324 137.992 0.336971 137.936 0.458599 137.936H359.541C359.663 137.936 359.78 137.992 359.866 138.092C359.952 138.191 360 138.327 360 138.468C360 138.609 359.952 138.744 359.866 138.844C359.78 138.944 359.663 139 359.541 139Z" fill="#CACACA"/>
<path d="M273.325 103.881H153.631C153.509 103.881 153.392 103.825 153.306 103.725C153.22 103.625 153.172 103.49 153.172 103.349C153.172 103.208 153.22 103.072 153.306 102.973C153.392 102.873 153.509 102.817 153.631 102.817H273.325C273.446 102.817 273.563 102.873 273.649 102.973C273.735 103.072 273.783 103.208 273.783 103.349C273.783 103.49 273.735 103.625 273.649 103.725C273.563 103.825 273.446 103.881 273.325 103.881Z" fill="#CACACA"/>
<path d="M215.168 14.5342L214.38 3.15162C214.306 2.90862 214.18 2.6912 214.014 2.51928C213.848 2.34735 213.648 2.22639 213.431 2.16748C213.215 2.10858 212.989 2.1136 212.775 2.1821C212.561 2.25059 212.365 2.38037 212.205 2.55955C205.88 4.35998 203.328 8.19142 202.597 13.0033C199.562 12.2568 196.441 12.0939 193.361 12.5209C195.584 8.84908 195.431 5.10674 193.118 1.30041C193.053 1.05137 192.935 0.825468 192.774 0.643734C192.614 0.462001 192.416 0.330334 192.2 0.261007C191.984 0.19168 191.756 0.186936 191.538 0.24722C191.32 0.307505 191.118 0.430866 190.952 0.605801C186.674 3.11453 183.682 6.24092 183.2 10.5734C177.828 13.9165 173.519 19.1689 170.907 25.5603C168.295 31.9518 167.516 39.1461 168.685 46.0886C169.854 53.031 172.909 59.3563 177.403 64.1371C181.896 68.9179 187.591 71.9026 193.653 72.6537C199.715 73.4048 205.825 71.8827 211.087 68.3106C216.349 64.7385 220.487 59.3044 222.893 52.8049C225.299 46.3054 225.847 39.0824 224.457 32.1951C223.067 25.3077 219.811 19.1183 215.168 14.5342H215.168Z" fill="#3F3D56"/>
<path d="M218.73 60.726C241.85 57.285 254.856 101.042 217.557 103.48C215.269 106.393 197.332 108.829 182.131 104.807C168.486 105.442 152.975 84.7333 172.102 56.4889L218.73 60.726Z" fill="#3F3D56"/>
<path d="M195.649 83.3049V105.442H204.568L211.646 82.901" fill="#3F3D56"/>
<path d="M227.511 97.9762C227.462 97.8948 227.427 97.809 227.384 97.7255C227.004 97.7417 226.624 97.758 226.244 97.7743L227.511 97.9762Z" fill="#3F3D56"/>
<path d="M262.656 85.1856C259.809 79.9051 252.842 78.4379 248.577 82.2205C246.652 83.9275 245.355 86.3951 243.71 88.4592C240.944 91.9096 237.255 94.1751 233.241 94.8884C230.446 95.3745 227.49 95.1106 224.909 96.4458C222.407 97.7405 220.519 101.437 221.881 104.111C231.487 103.7 241.094 103.289 250.7 102.878C253.464 102.76 256.326 102.614 258.797 101.174C263.594 98.3775 265.503 90.4661 262.656 85.1856Z" fill="#3F3D56"/>
<path d="M194.488 69.8899C190.542 69.9318 186.632 69.0264 183.002 67.2304C175.424 63.4135 171.95 56.9723 171.806 56.7C171.759 56.6089 171.744 56.4997 171.766 56.3963C171.788 56.2928 171.844 56.2035 171.922 56.1477C172 56.092 172.094 56.0743 172.183 56.0986C172.273 56.1229 172.35 56.1872 172.399 56.2774C175.144 60.8015 178.925 64.3449 183.314 66.5078C190.139 69.9312 201.792 71.6465 218.555 60.3768C218.595 60.3502 218.638 60.3328 218.684 60.3257C218.729 60.3186 218.775 60.322 218.819 60.3356C218.864 60.3492 218.905 60.3728 218.941 60.405C218.978 60.4372 219.008 60.4774 219.031 60.5233C219.054 60.5692 219.069 60.6199 219.075 60.6725C219.081 60.725 219.078 60.7785 219.066 60.8297C219.054 60.881 219.034 60.929 219.006 60.9711C218.978 61.0132 218.944 61.0485 218.904 61.0751V61.0751C209.064 67.6907 200.94 69.8899 194.488 69.8899Z" fill="white"/>
<path d="M195.996 49.4108C195.351 49.41 194.732 49.1121 194.276 48.5826C193.82 48.0531 193.563 47.3352 193.562 46.5863C193.563 46.4797 193.599 46.3776 193.665 46.3023C193.73 46.2271 193.818 46.1849 193.91 46.1849C194.002 46.1849 194.09 46.2271 194.155 46.3023C194.22 46.3776 194.257 46.4797 194.258 46.5863C194.258 47.1208 194.442 47.6331 194.768 48.0108C195.094 48.3884 195.536 48.6005 195.996 48.6005C196.457 48.6005 196.899 48.3884 197.225 48.0108C197.551 47.6331 197.734 47.1208 197.735 46.5863C197.736 46.4797 197.773 46.3776 197.838 46.3023C197.903 46.2271 197.991 46.1849 198.083 46.1849C198.175 46.1849 198.263 46.2271 198.328 46.3023C198.393 46.3776 198.43 46.4797 198.431 46.5863C198.43 47.3352 198.173 48.0531 197.717 48.5826C197.261 49.1121 196.642 49.41 195.996 49.4108Z" fill="white"/>
<path d="M196.17 42.7841C197.707 42.7841 198.952 42.2282 198.952 41.5426C198.952 40.8569 197.707 40.301 196.17 40.301C194.634 40.301 193.388 40.8569 193.388 41.5426C193.388 42.2282 194.634 42.7841 196.17 42.7841Z" fill="white"/>
<path d="M177.464 41.6336C178.26 40.5277 179.255 39.6382 180.38 39.0278C181.505 38.4174 182.732 38.101 183.974 38.101C185.216 38.101 186.442 38.4174 187.567 39.0278C188.692 39.6382 189.688 40.5277 190.484 41.6336C191.833 40.1396 192.769 38.2152 193.175 36.1035C193.582 33.9919 193.439 31.788 192.765 29.7705C192.092 27.7529 190.918 26.0124 189.392 24.769C187.866 23.5256 186.057 22.8351 184.193 22.7849C182.328 22.7347 180.493 23.327 178.919 24.487C177.345 25.6469 176.103 27.3224 175.35 29.3015C174.596 31.2806 174.366 33.4745 174.687 35.6057C175.008 37.7369 175.867 39.7097 177.154 41.2747C177.255 41.3971 177.358 41.5167 177.464 41.6336Z" fill="white"/>
<path d="M202.919 41.6336C203.715 40.5277 204.711 39.6382 205.836 39.0278C206.961 38.4174 208.187 38.101 209.429 38.101C210.671 38.101 211.898 38.4174 213.023 39.0278C214.148 39.6382 215.143 40.5277 215.939 41.6336C217.288 40.1397 218.225 38.2152 218.631 36.1036C219.037 33.9919 218.894 31.788 218.221 29.7705C217.548 27.7529 216.374 26.0124 214.848 24.769C213.322 23.5256 211.512 22.8351 209.648 22.7849C207.784 22.7347 205.949 23.327 204.375 24.4869C202.801 25.6469 201.558 27.3223 200.805 29.3015C200.052 31.2806 199.821 33.4745 200.142 35.6057C200.464 37.7369 201.322 39.7097 202.61 41.2746C202.711 41.3971 202.814 41.5167 202.919 41.6336Z" fill="white"/>
<path d="M179.84 38.548C181.632 38.548 183.084 36.8633 183.084 34.7851C183.084 32.7069 181.632 31.0221 179.84 31.0221C178.049 31.0221 176.597 32.7069 176.597 34.7851C176.597 36.8633 178.049 38.548 179.84 38.548Z" fill="#3F3D56"/>
<path d="M205.295 38.548C207.086 38.548 208.538 36.8633 208.538 34.7851C208.538 32.7069 207.086 31.0221 205.295 31.0221C203.504 31.0221 202.052 32.7069 202.052 34.7851C202.052 36.8633 203.504 38.548 205.295 38.548Z" fill="#3F3D56"/>
<path d="M209.733 49.5967C211.302 49.5967 212.575 48.1204 212.575 46.2993C212.575 44.4782 211.302 43.002 209.733 43.002C208.163 43.002 206.891 44.4782 206.891 46.2993C206.891 48.1204 208.163 49.5967 209.733 49.5967Z" fill="#FF6584"/>
<path d="M184.051 49.5967C185.621 49.5967 186.893 48.1204 186.893 46.2993C186.893 44.4782 185.621 43.002 184.051 43.002C182.482 43.002 181.209 44.4782 181.209 46.2993C181.209 48.1204 182.482 49.5967 184.051 49.5967Z" fill="#FF6584"/>
<path d="M153.681 103.18C154.822 102.355 154.017 98.4665 151.884 94.4952C149.75 90.524 147.095 87.9736 145.954 88.7988C144.814 89.6241 145.618 93.5124 147.752 97.4837C149.886 101.455 152.54 104.005 153.681 103.18Z" fill="#3F3D56"/>
<path d="M165.313 75.9709L149.818 94.9075L153.858 102.98L168.486 92.8381" fill="#3F3D56"/>
<path d="M192.41 110.997C192.607 109.454 189.532 107.648 185.543 106.963C181.553 106.277 178.159 106.973 177.962 108.516C177.765 110.059 180.84 111.865 184.83 112.551C188.82 113.236 192.213 112.541 192.41 110.997Z" fill="#3F3D56"/>
<path d="M182.075 83.0947L184.476 109.057L192.38 110.962L195.207 91.2125" fill="#3F3D56"/>
<path d="M216.949 110.464C220.958 109.961 224.092 108.295 223.947 106.745C223.803 105.194 220.435 104.344 216.425 104.848C212.415 105.351 209.282 107.016 209.426 108.567C209.571 110.118 212.939 110.967 216.949 110.464Z" fill="#3F3D56"/>
<path d="M207.884 82.7632L215.847 107.185L223.909 106.718L222.356 86.779" fill="#3F3D56"/>
</g>
<defs>
<clipPath id="clip0_38_795">
<rect width="360" height="138.795" fill="white" transform="translate(0 0.204803)"/>
</clipPath>
</defs>
</svg>
